HIERARCHY
ROOT Hips
{
	OFFSET -1.602300 6.242603 43.997101
	CHANNELS 6 Xposition Yposition Zposition Zrotation Xrotation Yrotation
	JOINT Chest
	{
		OFFSET -0.204900 1.598101 7.917301
		CHANNELS 6 Xposition Yposition Zposition Zrotation Xrotation Yrotation
		JOINT Chest2
		{
			OFFSET 0.000000 0.000000 3.404099
			CHANNELS 6 Xposition Yposition Zposition Zrotation Xrotation Yrotation
			JOINT Neck
			{
				OFFSET 0.000000 0.000000 7.928600
				CHANNELS 6 Xposition Yposition Zposition Zrotation Xrotation Yrotation
				JOINT Head
				{
					OFFSET 0.000000 0.000000 2.173897
					CHANNELS 6 Xposition Yposition Zposition Zrotation Xrotation Yrotation
					End Site
					{
						OFFSET 0.000000 0.000001 10.404503
					}
				}
			}
			JOINT LeftCollar
			{
				OFFSET 2.833800 -1.396299 4.843300
				CHANNELS 6 Xposition Yposition Zposition Zrotation Xrotation Yrotation
				JOINT LeftShoulder
				{
					OFFSET 4.363600 0.000000 0.000000
					CHANNELS 6 Xposition Yposition Zposition Zrotation Xrotation Yrotation
					JOINT LeftElbow
					{
						OFFSET 0.000000 -0.000001 -10.306900
						CHANNELS 6 Xposition Yposition Zposition Zrotation Xrotation Yrotation
						JOINT LeftWrist
						{
							OFFSET 0.000000 -0.000001 -12.404900
							CHANNELS 6 Xposition Yposition Zposition Zrotation Xrotation Yrotation
							End Site
							{
								OFFSET 0.000000 0.000000 -2.173901
							}
						}
					}
				}
			}
			JOINT RightCollar
			{
				OFFSET -2.354800 -1.897200 5.063099
				CHANNELS 6 Xposition Yposition Zposition Zrotation Xrotation Yrotation
				JOINT RightShoulder
				{
					OFFSET -4.375800 0.000000 0.000000
					CHANNELS 6 Xposition Yposition Zposition Zrotation Xrotation Yrotation
					JOINT RightElbow
					{
						OFFSET 0.000000 -0.000001 -10.005001
						CHANNELS 6 Xposition Yposition Zposition Zrotation Xrotation Yrotation
						JOINT RightWrist
						{
							OFFSET 0.000000 -0.000001 -13.174900
							CHANNELS 6 Xposition Yposition Zposition Zrotation Xrotation Yrotation
							End Site
							{
								OFFSET 0.000000 0.000000 -2.173901
							}
						}
					}
				}
			}
		}
	}
	JOINT LeftHip
	{
		OFFSET 2.240600 0.386800 -2.614101
		CHANNELS 6 Xposition Yposition Zposition Zrotation Xrotation Yrotation
		JOINT LeftKnee
		{
			OFFSET 0.000000 -0.000001 -18.592899
			CHANNELS 6 Xposition Yposition Zposition Zrotation Xrotation Yrotation
			JOINT LeftAnkle
			{
				OFFSET 0.000000 -0.000001 -18.765800
				CHANNELS 6 Xposition Yposition Zposition Zrotation Xrotation Yrotation
				End Site
				{
					OFFSET 0.000000 -8.655000 0.000000
				}
			}
		}
	}
	JOINT RightHip
	{
		OFFSET -2.014900 -0.220900 -2.615898
		CHANNELS 6 Xposition Yposition Zposition Zrotation Xrotation Yrotation
		JOINT RightKnee
		{
			OFFSET 0.000000 -0.000001 -18.633900
			CHANNELS 6 Xposition Yposition Zposition Zrotation Xrotation Yrotation
			JOINT RightAnkle
			{
				OFFSET 0.000000 -0.000001 -18.285101
				CHANNELS 6 Xposition Yposition Zposition Zrotation Xrotation Yrotation
				End Site
				{
					OFFSET 0.000000 -7.524500 0.000000
				}
			}
		}
	}
}
MOTION
Frames: 6
Frame Time: 0.041667
-5.530000 23.332001 9.091103 8.143029 36.850281 4.163390 -0.204900 1.598098 7.917309 -3.388912 29.520952 5.890681 -0.000001 0.000004 3.404098 8.860646 -25.874456 -1.280812 0.000000 -0.000004 7.928604 1.490017 23.468974 0.882536 -0.000001 -0.000002 2.173909 -3.467833 8.479458 -4.227875 2.833805 -1.396299 4.843299 36.859970 11.088342 32.675878 4.363601 0.000007 -0.000007 -88.948973 34.361172 -133.623827 -0.000004 -0.000001 -10.306894 591.280952 -163.470360 552.246749 0.000002 -0.000002 -12.404894 13.539111 367.186516 -338.440463 -2.354801 -1.897204 5.063099 5.858925 17.021789 -16.016186 -4.375801 0.000006 -0.000010 78.641036 8.528486 145.853280 0.000000 0.000005 -10.004999 -605.952089 -168.520465 -567.697020 -0.000008 0.000001 -13.174897 25.054584 -37.788322 323.330828 2.240596 0.386800 -2.614103 152.952647 -36.812312 126.897784 -0.000001 -0.000000 -18.592894 -89.132514 45.560090 137.988031 0.000002 -0.000000 -18.765797 -2.751678 37.048616 -12.751734 -2.014896 -0.220896 -2.615899 -124.388536 13.875876 -122.335054 -0.000003 0.000003 -18.633879 177.299908 20.436968 -173.714032 -0.000007 -0.000001 -18.285084 -18.278312 29.490435 -205.300788
-5.530899 23.319202 9.085812 7.896558 37.060354 4.134469 -0.204899 1.598096 7.917308 -3.210247 29.484745 5.595227 -0.000001 0.000003 3.404098 9.057062 -28.947872 -1.527878 0.000000 -0.000004 7.928599 -1.226495 26.554223 2.201037 -0.000001 0.000002 2.173898 -2.934962 8.445268 -4.400366 2.833807 -1.396298 4.843300 38.124197 18.595793 54.407699 4.363605 0.000007 -0.000005 -100.588558 49.442698 -129.089646 -0.000000 0.000002 -10.306901 582.587925 -161.717405 553.954515 0.000004 -0.000001 -12.404893 13.712098 367.829565 -338.703234 -2.354808 -1.897205 5.063102 8.622016 22.788815 -38.922649 -4.375802 0.000006 -0.000020 78.242221 24.426285 153.548308 -0.000004 0.000006 -10.004997 -601.203086 -167.877348 -569.211354 -0.000010 0.000001 -13.174896 25.248943 -37.764235 323.226763 2.240598 0.386799 -2.614107 153.171623 -36.540464 126.887211 -0.000001 -0.000002 -18.592894 -89.185325 45.599736 138.032085 0.000001 -0.000000 -18.765797 -2.827720 37.044897 -12.710517 -2.014895 -0.220898 -2.615901 -124.204545 13.765158 -122.567308 -0.000000 0.000001 -18.633883 177.210064 20.447659 -173.752376 -0.000005 -0.000006 -18.285084 -18.312045 29.518227 -205.296348
-5.529699 23.306202 9.082306 7.642040 37.246278 4.105323 -0.204899 1.598099 7.917309 -3.021013 29.474804 5.249952 -0.000000 0.000005 3.404098 9.363739 -32.438341 -1.891907 0.000000 0.000001 7.928600 -4.098905 29.963797 3.989514 -0.000001 0.000001 2.173907 -2.533055 8.134084 -4.407054 2.833806 -1.396292 4.843298 26.445809 28.897779 78.977744 4.363609 0.000000 -0.000007 -106.144999 59.006967 -130.200672 0.000001 0.000002 -10.306895 568.423916 -158.650978 556.154109 0.000006 -0.000002 -12.404899 13.200053 367.960869 -339.111406 -2.354807 -1.897196 5.063099 10.886247 25.951671 -61.808479 -4.375805 0.000005 -0.000008 74.934955 40.535393 160.140848 -0.000002 0.000006 -10.004992 -597.908148 -166.696572 -571.504112 -0.000008 0.000002 -13.174899 25.677703 -37.729149 323.202858 2.240598 0.386800 -2.614100 153.377417 -36.297787 126.855068 -0.000001 -0.000000 -18.592890 -89.233819 45.650840 138.069351 0.000000 0.000002 -18.765797 -2.914260 37.041683 -12.667649 -2.014896 -0.220899 -2.615896 -124.023463 13.642223 -122.771721 -0.000000 0.000003 -18.633879 177.123430 20.454038 -173.784628 -0.000006 -0.000004 -18.285084 -18.345282 29.551179 -205.292701
-5.526999 23.292194 9.080711 7.383012 37.401870 4.079488 -0.204900 1.598101 7.917307 -2.814543 29.513531 4.825188 0.000001 -0.000002 3.404101 9.910441 -35.001677 -2.273688 0.000000 -0.000002 7.928605 -7.219206 32.366573 6.218617 -0.000000 0.000000 2.173900 -1.886374 7.429705 -4.266350 2.833810 -1.396291 4.843300 13.822343 32.427689 95.858338 4.363608 0.000004 -0.000008 -103.779260 63.541789 -135.642161 0.000003 0.000004 -10.306894 560.271183 -156.219691 557.784393 0.000006 -0.000001 -12.404896 12.589546 367.953765 -339.673094 -2.354813 -1.897195 5.063097 11.524063 28.184178 -74.398764 -4.375800 0.000006 -0.000010 73.118616 48.373264 164.111086 0.000000 0.000006 -10.004993 -595.110011 -165.584399 -573.187180 -0.000010 0.000001 -13.174895 26.004181 -37.731802 323.071554 2.240596 0.386807 -2.614107 153.570083 -36.090750 126.800440 -0.000002 0.000001 -18.592894 -89.290810 45.715481 138.113583 0.000001 -0.000001 -18.765799 -3.019003 37.039709 -12.623699 -2.014896 -0.220898 -2.615902 -123.848637 13.505056 -122.939307 -0.000001 0.000002 -18.633881 177.038162 20.457304 -173.811280 -0.000005 -0.000005 -18.285084 -18.378157 29.587799 -205.290734
-5.523499 23.280796 9.080212 7.169537 37.539707 4.052546 -0.204899 1.598097 7.917310 -2.625367 29.553607 4.308558 -0.000001 -0.000001 3.404100 9.919802 -36.877615 -2.126657 0.000000 -0.000002 7.928600 -9.159218 34.189055 7.486111 -0.000001 -0.000002 2.173903 -1.521794 6.634316 -4.017169 2.833806 -1.396299 4.843296 7.550205 33.271532 104.058868 4.363602 0.000008 -0.000005 -104.421264 64.511547 -136.249816 0.000003 0.000004 -10.306899 554.890524 -154.697419 558.580138 0.000002 -0.000001 -12.404896 12.433541 368.084386 -339.912478 -2.354809 -1.897198 5.063095 12.166061 29.702348 -81.999802 -4.375805 0.000004 -0.000005 72.670938 52.184414 165.905937 -0.000006 0.000005 -10.004994 -592.949376 -164.666708 -574.202420 -0.000010 -0.000001 -13.174895 26.127488 -37.722428 322.927519 2.240599 0.386802 -2.614109 153.728693 -35.918100 126.763639 0.000000 0.000000 -18.592894 -89.357234 45.796838 138.163430 0.000001 0.000000 -18.765799 -3.137643 37.038627 -12.579149 -2.014892 -0.220900 -2.615900 -123.711569 13.387577 -123.070870 -0.000001 0.000001 -18.633879 176.960653 20.460947 -173.831743 -0.000006 -0.000002 -18.285088 -18.412120 29.625570 -205.287278
-5.521499 23.271999 9.082203 7.048147 37.658074 3.997525 -0.204900 1.598097 7.917304 -2.491229 29.604840 3.726176 -0.000000 0.000004 3.404101 9.949695 -38.032255 -2.200050 0.000000 -0.000008 7.928597 -10.862759 35.283958 8.722101 -0.000001 -0.000003 2.173903 -1.345497 6.034009 -3.838497 2.833810 -1.396298 4.843296 4.291635 33.629403 108.101322 4.363604 0.000003 -0.000002 -105.260633 64.752475 -135.786278 0.000001 0.000004 -10.306894 552.245383 -153.944664 558.893343 0.000002 -0.000000 -12.404889 12.513432 368.243010 -340.043181 -2.354810 -1.897200 5.063096 12.425197 30.860816 -85.420750 -4.375804 0.000005 -0.000005 72.899743 53.447668 166.725628 -0.000003 0.000003 -10.004995 -591.911679 -164.310323 -574.750365 -0.000011 0.000000 -13.174900 26.499706 -37.677021 322.615489 2.240598 0.386804 -2.614105 153.819152 -35.779174 126.739146 -0.000006 -0.000001 -18.592897 -89.458375 45.898000 138.237537 0.000000 0.000000 -18.765797 -3.287045 37.038989 -12.530636 -2.014894 -0.220898 -2.615900 -123.643090 13.293332 -123.165455 -0.000001 0.000004 -18.633881 176.894564 20.468612 -173.842275 -0.000006 -0.000003 -18.285082 -18.446343 29.664212 -205.280693
